<?xml version="1.0" encoding="utf-8"?>
<!-- Generator: Adobe Illustrator 15.1.0, SVG Export Plug-In . SVG Version: 6.00 Build 0)  -->
<!DOCTYPE svg PUBLIC "-//W3C//DTD SVG 1.0//EN" "http://www.w3.org/TR/2001/REC-SVG-20010904/DTD/svg10.dtd">
<svg version="1.0" id="Layer_1" xmlns="http://www.w3.org/2000/svg" xmlns:xlink="http://www.w3.org/1999/xlink" x="0px" y="0px"
	 width="100px" height="33px" viewBox="0 0 353.843 100" enable-background="new 0 0 353.843 100" xml:space="preserve">
<g>
	<path fill="#FFFFFF" d="M132.599,33.315c0-6.826-6.302-9.752-15.41-9.752c-9.724,0-15.045,4.807-15.045,8.585c0,1.94,1.603,3.622,4.016,3.622
		c3.756,0,3.96-5.194,10.966-5.194c3.186,0,5.968,1.167,5.968,3.893c0,2.739-1.804,3.263-4.083,3.516l-5.781,0.644
		c-7.27,0.851-13.258,3.063-13.258,10.888c0,5.961,5.338,9.654,10.733,9.654c4.998,0,9.285-1.417,12.988-5.516
		c0.116,2.924,1.491,5.516,5.574,5.516c2.279,0,4.301-1.492,4.301-3.633c0-1.495-0.968-2.395-0.968-6.348V33.315 M123.094,46.103
		c0,3.478-3.173,6.837-8.353,6.837c-3.26,0-5.268-1.748-5.268-3.88c0-2.828,2.131-4.069,6.102-4.646l3.436-0.531
		c1.112-0.183,3.046-0.517,4.083-1.487V46.103z"/>
	<path fill="#FFFFFF" d="M136.078,30.903c-0.247-0.767-0.577-1.819-0.577-2.406c0-3.373,2.338-4.931,4.614-4.931c3.556,0,4.47,2.993,4.737,3.963
		l6.369,21.407h0.13l6.348-21.407c0.271-0.971,1.165-3.963,4.759-3.963c2.257,0,4.6,1.558,4.6,4.931
		c0,0.587-0.352,1.639-0.584,2.406l-8.96,24.906c-0.929,2.521-1.505,3.364-6.243,3.364c-4.73,0-5.321-0.843-6.221-3.364
		L136.078,30.903"/>
	<path fill="#FFFFFF" d="M200.812,33.315c0-6.826-6.281-9.752-15.394-9.752c-9.731,0-15.048,4.807-15.048,8.585c0,1.94,1.619,3.622,4.023,3.622
		c3.77,0,3.957-5.194,10.965-5.194c3.193,0,5.965,1.167,5.965,3.893c0,2.739-1.802,3.263-4.08,3.516l-5.777,0.644
		c-7.277,0.851-13.227,3.063-13.227,10.888c0,5.961,5.3,9.654,10.698,9.654c5.001,0,9.284-1.417,12.984-5.516
		c0.14,2.924,1.484,5.516,5.588,5.516c2.272,0,4.281-1.492,4.281-3.633c0-1.495-0.979-2.395-0.979-6.348V33.315 M191.323,46.103
		c0,3.478-3.165,6.837-8.353,6.837c-3.257,0-5.268-1.748-5.268-3.88c0-2.828,2.138-4.069,6.094-4.646l3.446-0.531
		c1.122-0.183,3.054-0.517,4.08-1.487V46.103z"/>
	<path fill="#FFFFFF" d="M207.055,28.307c0-2.852,1.285-4.744,4.265-4.744c2.996,0,4.294,1.892,4.294,4.744v1.241h0.132
		c2.654-3.509,6.107-5.985,11.492-5.985c5.697,0,11.942,2.866,11.942,12.467v18.403c0,2.531-1.04,4.737-4.723,4.737
		c-3.71,0-4.775-2.206-4.775-4.737V37.922c0-3.833-1.868-6.555-5.965-6.555c-3.281,0-7.196,2.721-7.196,7.458v15.608
		c0,2.531-1.029,4.737-4.736,4.737c-3.692,0-4.729-2.206-4.729-4.737V28.307"/>
	<path fill="#FFFFFF" d="M276.254,33.315c0-6.826-6.309-9.752-15.396-9.752c-9.735,0-15.045,4.807-15.045,8.585c0,1.94,1.609,3.622,4.023,3.622
		c3.754,0,3.952-5.194,10.95-5.194c3.193,0,5.985,1.167,5.985,3.893c0,2.739-1.817,3.263-4.086,3.516l-5.782,0.644
		c-7.272,0.851-13.251,3.063-13.251,10.888c0,5.961,5.331,9.654,10.719,9.654c5.001,0,9.285-1.417,12.991-5.516
		c0.116,2.924,1.484,5.516,5.571,5.516c2.271,0,4.297-1.492,4.297-3.633c0-1.495-0.978-2.395-0.978-6.348V33.315 M266.772,46.103
		c0,3.478-3.175,6.837-8.384,6.837c-3.238,0-5.247-1.748-5.247-3.88c0-2.828,2.125-4.069,6.102-4.646l3.443-0.531
		c1.098-0.183,3.039-0.517,4.086-1.487V46.103z"/>
	<path fill="#FFFFFF" d="M314.623,15.513c0-3.116-1.889-4.727-4.749-4.727c-2.865,0-4.739,1.61-4.739,4.727v12.853H305
		c-1.881-3.042-5.113-4.803-9.351-4.803c-9.998,0-14.602,8.507-14.602,17.595c0,12.231,6.941,18.015,14.869,18.015
		c4.61,0,8.439-1.947,10.005-5.963h0.127v1.487c0,2.916,1.484,4.476,4.28,4.476c2.922,0,4.294-1.56,4.294-4.476V15.513
		 M290.528,41.484c0-4.399,1.492-10.512,7.529-10.512c5.775-0.07,7.597,5.648,7.597,10.512c0,5.388-2.085,10.294-7.597,10.294
		C292.995,51.639,290.528,47.069,290.528,41.484"/>
	<path fill="#FFFFFF" d="M349.671,43.173c3.18,0,4.172-0.841,4.172-4.086c0-7.787-6.239-15.523-17.158-15.523c-11.23,0-17.919,7.41-17.919,18.449
		c0,8.212,4.993,17.159,18.266,17.159c5.691,0,14.842-2.663,14.842-8.362c0-1.749-1.619-3.676-3.904-3.676
		c-3.827,0-3.827,4.646-10.938,4.646c-5.534,0-8.781-3.619-8.781-8.605H349.671 M328.25,37.731c1.03-4.624,3.896-7.536,8.642-7.536
		c4.205,0,7.458,3.175,7.961,7.536H328.25z"/>
	<path fill="#FFFFFF" d="M35.653,59.181c-2.92,0-5.288,2.36-5.288,5.27c0,2.906,2.367,5.288,5.288,5.288h52.744
		c2.915,0,5.276-2.382,5.276-5.288c0-2.909-2.361-5.27-5.276-5.27H35.653"/>
	<path fill="#FFFFFF" d="M2.006,25.69c-0.26,2.891,1.873,5.458,4.787,5.719c2.905,0.267,5.477-1.889,5.736-4.801
		c0.937-10.649,8.693-16.04,23.041-16.04c17.415,0,19.833,6.306,19.833,13.125v11.434c-5.806-3.918-12.552-6.31-19.765-6.31
		C15.992,28.817,0,44.797,0,64.396C0,84.031,15.992,100,35.637,100c11.941,0,22.982-5.908,29.573-15.821
		c1.61-2.415,0.965-5.701-1.478-7.317c-2.422-1.611-5.694-0.962-7.319,1.469c-4.635,6.956-12.392,11.103-20.776,11.103
		c-13.828,0-25.075-11.229-25.075-25.036c0-13.808,11.247-25.019,25.075-25.019c8.302,0,16.023,4.098,20.662,10.932
		c1.302,1.921,3.711,2.774,5.918,2.087c2.226-0.675,3.742-2.711,3.742-5.024V23.693C65.959,12.882,60.681,0,35.569,0
		C15.69,0,3.439,9.352,2.006,25.69"/>
</g>
</svg>
